<svg xmlns="http://www.w3.org/2000/svg" viewBox="0 0 32 32" width="32" height="32">
	<defs>
		<clipPath clipPathUnits="userSpaceOnUse" id="cp1">
			<path d="M-1134 -35L232 -35L232 4254L-1134 4254Z" />
		</clipPath>
	</defs>
	<style>
		tspan { white-space:pre }
		.shp0 { fill: #1261a2 } 
		.shp1 { fill: #ffffff } 
	</style>
	<g id="01 Home" clip-path="url(#cp1)">
		<g id="Group 3">
			<path id="Ellipse 1" class="shp0" d="M16.03 31.78C7.27 31.78 0.2 24.71 0.2 15.95C0.2 7.2 7.27 0.12 16.03 0.12C24.78 0.12 31.86 7.2 31.86 15.95C31.86 24.71 24.78 31.78 16.03 31.78Z" />
			<path id="Path 35" class="shp1" d="M12.96 18.31L13.13 19.37L13.66 19.37C16.31 19.37 18.95 19.37 21.6 19.37C21.74 19.37 21.94 19.32 22.02 19.39C22.22 19.57 22.49 19.79 22.51 20.01C22.52 20.2 22.24 20.42 22.05 20.6C21.99 20.66 21.84 20.62 21.72 20.62C18.61 20.63 15.5 20.63 12.38 20.63C12.3 20.63 12.22 20.63 12.08 20.63C11.95 19.86 11.82 19.11 11.7 18.35C11.37 16.25 11.04 14.15 10.71 12.05C10.67 11.79 10.56 11.67 10.29 11.61C9.32 11.4 8.35 11.16 7.38 10.93C7.07 10.85 6.79 10.74 6.74 10.37C6.67 9.87 7.06 9.57 7.63 9.7C8.74 9.96 9.85 10.28 10.97 10.49C11.57 10.6 11.86 10.83 11.88 11.46C11.89 11.85 11.99 12.25 12.06 12.68L12.67 12.68C16.11 12.68 19.54 12.68 22.98 12.68C23.94 12.68 24.25 13.13 23.91 14.04C23.47 15.21 23.02 16.39 22.58 17.56C22.34 18.19 22.17 18.31 21.51 18.31C18.84 18.31 16.18 18.31 13.52 18.31L12.96 18.31Z" />
			<path id="Path 36" class="shp1" d="M15.53 22.48C15.53 23.19 14.95 23.75 14.23 23.74C13.5 23.74 12.94 23.15 12.96 22.44C12.98 21.74 13.54 21.2 14.24 21.19C14.97 21.19 15.54 21.76 15.53 22.48Z" />
			<path id="Path 37" class="shp1" d="M21.61 22.52C21.58 23.25 21.01 23.77 20.27 23.74C19.57 23.71 19.04 23.15 19.05 22.44C19.07 21.72 19.64 21.18 20.38 21.2C21.1 21.21 21.63 21.78 21.61 22.52Z" />
		</g>
	</g>
</svg>