<svg xmlns="http://www.w3.org/2000/svg" viewBox="0 0 56 62" width="56" height="62">
	<defs>
		<clipPath clipPathUnits="userSpaceOnUse" id="cp1">
			<path d="M-738 -1193L628 -1193L628 3096L-738 3096Z" />
		</clipPath>
	</defs>
	<style>
		tspan { white-space:pre }
		.shp0 { fill: #d90010 } 
	</style>
	<g id="01 Home" clip-path="url(#cp1)">
		<g id="drug-medical-coronavirus-covid19-hospital">
			<path id="Path 85" fill-rule="evenodd" class="shp0" d="M53.62 21.61C55.19 25.38 56 29.42 56 33.51L56 52C56 54.76 53.76 57 51 57L48.9 57C48.42 59.32 46.37 60.99 44 61L12 61C9.24 61 7 58.76 7 56L7 51L3 51C1.35 50.99 0 49.65 0 48L0 28C0 24.24 2.97 21.31 7.07 21.02C7.59 20.98 8 20.55 8 20.03L8 19L7 19C6.45 19 6 18.55 6 18L6 14C6 12.34 7.35 11 9 11L15 11C16.65 11 18 12.34 18 14L18 18C18 18.55 17.55 19 17 19L16 19L16 20.02C16.01 20.56 16.45 21 16.99 21.01C18.85 21.02 20.63 21.76 21.95 23.06C23.27 24.36 24.01 26.14 24 28L24 39L26 39L26 33.51C26 25.85 28.83 18.46 33.96 12.77L35 11.62L35 9L34 9C33.45 9 33 8.55 33 8L33 4C33 2.35 34.35 1 36 1L46 1C47.65 1 49 2.35 49 4L49 8C49 8.55 48.55 9 48 9L47 9L47 11.62L48.04 12.77C50.39 15.38 52.27 18.37 53.62 21.61ZM35 7L47 7L47 4C47 3.45 46.55 3 46 3L36 3C35.45 3 35 3.45 35 4L35 7ZM37 9L37 11L45 11L45 9L37 9ZM35.44 14.11C33.59 16.18 32.04 18.5 30.84 21L51.16 21C49.96 18.5 48.41 16.18 46.56 14.11L45.56 13L36.44 13L35.44 14.11ZM8 17L16 17L16 14C16 13.45 15.55 13 15 13L9 13C8.45 13 8 13.45 8 14L8 17ZM2 29L17 29C17.55 29 18 29.45 18 30L18 39L22 39L22 28C22 26.68 21.48 25.4 20.54 24.47C19.56 23.52 18.25 23 16.89 23.01C15.28 22.95 14.01 21.63 14 20.02L14 19L10 19L10 20.03C9.99 21.6 8.78 22.9 7.21 23.02C4.14 23.23 2 25.28 2 28L2 29ZM7 45L2 45L2 48C2 48.55 2.45 49 3 49L7 49L7 45ZM7.1 43C7.58 40.68 9.63 39.01 12 39L16 39L16 31L2 31L2 43L7.1 43ZM47 44C47 42.35 45.65 41 44 41L12 41C10.35 41 9 42.35 9 44L9 56C9 57.65 10.35 58.99 12 59L44 59C45.65 58.99 47 57.65 47 56L47 44ZM54 41L47.97 41C48.63 41.86 49 42.91 49 44L49 55L51 55C52.65 54.99 54 53.65 54 52L54 41ZM54 33.51C54 29.91 53.33 26.35 52.03 23L29.97 23C28.67 26.35 28 29.91 28 33.51L28 39L54 39L54 33.51Z" />
			<path id="Path 86" fill-rule="evenodd" class="shp0" d="M44 36C44 36.55 43.55 37 43 37L39 37C38.45 37 38 36.55 38 36L38 34L36 34C35.45 34 35 33.55 35 33L35 29C35 28.45 35.45 28 36 28L38 28L38 26C38 25.45 38.45 25 39 25L43 25C43.55 25 44 25.45 44 26L44 28L46 28C46.55 28 47 28.45 47 29L47 33C47 33.55 46.55 34 46 34L44 34L44 36ZM45 32L45 30L43 30C42.45 30 42 29.55 42 29L42 27L40 27L40 29C40 29.55 39.55 30 39 30L37 30L37 32L39 32C39.55 32 40 32.45 40 33L40 35L42 35L42 33C42 32.45 42.45 32 43 32L45 32Z" />
			<path id="Path 87" fill-rule="evenodd" class="shp0" d="M24 43C25.66 43 27 44.34 27 46C27 47.66 25.66 49 24 49C22.34 49 21 47.66 21 46C21 44.34 22.34 43 24 43ZM25 46C25 45.45 24.55 45 24 45C23.45 45 23 45.45 23 46C23 46.55 23.45 47 24 47C24.55 47 25 46.55 25 46Z" />
			<path id="Path 88" fill-rule="evenodd" class="shp0" d="M24 51C25.66 51 27 52.34 27 54C27 55.66 25.66 57 24 57C22.34 57 21 55.66 21 54C21 52.34 22.34 51 24 51ZM25 54C25 53.45 24.55 53 24 53C23.45 53 23 53.45 23 54C23 54.55 23.45 55 24 55C24.55 55 25 54.55 25 54Z" />
			<path id="Path 89" fill-rule="evenodd" class="shp0" d="M35 46C35 47.66 33.66 49 32 49C30.34 49 29 47.66 29 46C29 44.34 30.34 43 32 43C33.66 43 35 44.34 35 46ZM33 46C33 45.45 32.55 45 32 45C31.45 45 31 45.45 31 46C31 46.55 31.45 47 32 47C32.55 47 33 46.55 33 46Z" />
			<path id="Path 90" fill-rule="evenodd" class="shp0" d="M35 54C35 55.66 33.66 57 32 57C30.34 57 29 55.66 29 54C29 52.34 30.34 51 32 51C33.66 51 35 52.34 35 54ZM33 54C33 53.45 32.55 53 32 53C31.45 53 31 53.45 31 54C31 54.55 31.45 55 32 55C32.55 55 33 54.55 33 54Z" />
			<path id="Path 91" fill-rule="evenodd" class="shp0" d="M19 46C19 47.66 17.66 49 16 49C14.34 49 13 47.66 13 46C13 44.34 14.34 43 16 43C17.66 43 19 44.34 19 46ZM17 46C17 45.45 16.55 45 16 45C15.45 45 15 45.45 15 46C15 46.55 15.45 47 16 47C16.55 47 17 46.55 17 46Z" />
			<path id="Path 92" fill-rule="evenodd" class="shp0" d="M19 54C19 55.66 17.66 57 16 57C14.34 57 13 55.66 13 54C13 52.34 14.34 51 16 51C17.66 51 19 52.34 19 54ZM17 54C17 53.45 16.55 53 16 53C15.45 53 15 53.45 15 54C15 54.55 15.45 55 16 55C16.55 55 17 54.55 17 54Z" />
			<path id="Path 93" fill-rule="evenodd" class="shp0" d="M43 46C43 47.66 41.66 49 40 49C38.34 49 37 47.66 37 46C37 44.34 38.34 43 40 43C41.66 43 43 44.34 43 46ZM41 46C41 45.45 40.55 45 40 45C39.45 45 39 45.45 39 46C39 46.55 39.45 47 40 47C40.55 47 41 46.55 41 46Z" />
			<path id="Path 94" fill-rule="evenodd" class="shp0" d="M43 54C43 55.66 41.66 57 40 57C38.34 57 37 55.66 37 54C37 52.34 38.34 51 40 51C41.66 51 43 52.34 43 54ZM41 54C41 53.45 40.55 53 40 53C39.45 53 39 53.45 39 54C39 54.55 39.45 55 40 55C40.55 55 41 54.55 41 54Z" />
			<path id="Path 95" class="shp0" d="M13 33L4 33C3.45 33 3 33.45 3 34C3 34.55 3.45 35 4 35L13 35C13.55 35 14 34.55 14 34C14 33.45 13.55 33 13 33Z" />
			<path id="Path 96" class="shp0" d="M9 37L4 37C3.45 37 3 37.45 3 38C3 38.55 3.45 39 4 39L9 39C9.55 39 10 38.55 10 38C10 37.45 9.55 37 9 37Z" />
		</g>
	</g>
</svg>