<svg xmlns="http://www.w3.org/2000/svg" viewBox="0 0 53 53" width="53" height="53">
	<defs>
		<clipPath clipPathUnits="userSpaceOnUse" id="cp1">
			<path d="M-138 -486L1228 -486L1228 3803L-138 3803Z" />
		</clipPath>
	</defs>
	<style>
		tspan { white-space:pre }
		.shp0 { opacity: 0.216;fill: #ffffff } 
		.shp1 { fill: #ffffff } 
	</style>
	<g id="01 Home" clip-path="url(#cp1)">
		<g id="Group 71">
			<path id="Ellipse 18" class="shp0" d="M26.5 53C11.85 53 0 41.15 0 26.5C0 11.85 11.85 0 26.5 0C41.15 0 53 11.85 53 26.5C53 41.15 41.15 53 26.5 53Z" />
			<g id="XMLID_1575_">
				<g id="XMLID_1265_">
					<path id="XMLID_214_" class="shp1" d="M25.99 44.68C25.94 44.68 25.89 44.68 25.85 44.67L25.83 44.67C21.59 43.78 17.75 41.45 15.02 38.09C12.29 34.73 10.78 30.49 10.78 26.16L10.78 23.5C10.78 23.11 11.1 22.8 11.48 22.8C11.87 22.8 12.18 23.11 12.18 23.5L12.18 26.16C12.18 34.37 17.98 41.54 25.99 43.27C33.99 41.54 39.78 34.37 39.78 26.17L39.78 14.3L25.98 10.42L12.18 14.3L12.18 17.22C12.18 17.61 11.87 17.92 11.48 17.92C11.1 17.92 10.78 17.61 10.78 17.22L10.78 13.77C10.78 13.46 10.99 13.19 11.29 13.1L25.79 9.03C25.91 8.99 26.04 8.99 26.17 9.03L40.66 13.1C40.96 13.19 41.17 13.46 41.17 13.77L41.17 26.17C41.17 30.5 39.67 34.73 36.94 38.09C34.21 41.45 30.37 43.79 26.13 44.67C26.08 44.68 26.04 44.68 25.99 44.68Z" />
				</g>
				<g id="XMLID_1292_">
					<g id="XMLID_1294_">
						<path id="XMLID_215_" fill-rule="evenodd" class="shp1" d="M25.99 41.25C25.93 41.25 25.87 41.24 25.81 41.23C22.51 40.38 19.53 38.42 17.42 35.7C15.3 32.97 14.13 29.59 14.13 26.16L14.13 16.31C14.13 16 14.34 15.72 14.64 15.64L25.79 12.5C25.91 12.47 26.04 12.47 26.17 12.5L37.32 15.64C37.62 15.72 37.83 16 37.83 16.31L37.83 26.17C37.83 29.59 36.66 32.97 34.54 35.7C32.43 38.41 29.46 40.38 26.16 41.23C26.1 41.24 26.04 41.25 25.99 41.25ZM15.52 16.84L15.52 26.16C15.52 32.57 19.82 38.16 25.99 39.83C32.15 38.16 36.43 32.56 36.43 26.17L36.43 16.84L25.98 13.9L15.52 16.84Z" />
					</g>
				</g>
				<g id="XMLID_1321_">
					<path id="XMLID_211_" fill-rule="evenodd" class="shp1" d="M27.51 30.46L24.44 30.46C24.06 30.46 23.75 30.15 23.75 29.76L23.75 28.09L22.07 28.09C21.69 28.09 21.38 27.78 21.38 27.39L21.38 24.33C21.38 23.94 21.69 23.63 22.07 23.63L23.75 23.63L23.75 21.96C23.75 21.57 24.06 21.26 24.44 21.26L27.51 21.26C27.9 21.26 28.21 21.57 28.21 21.96L28.21 23.63L29.88 23.63C30.27 23.63 30.58 23.94 30.58 24.33L30.58 27.39C30.58 27.78 30.27 28.09 29.88 28.09L28.21 28.09L28.21 29.76C28.21 30.15 27.9 30.46 27.51 30.46ZM25.14 29.07L26.81 29.07L26.81 27.39C26.81 27.01 27.13 26.7 27.51 26.7L29.18 26.7L29.18 25.03L27.51 25.03C27.13 25.03 26.81 24.71 26.81 24.33L26.81 22.66L25.14 22.66L25.14 24.33C25.14 24.71 24.83 25.03 24.44 25.03L22.77 25.03L22.77 26.7L24.44 26.7C24.83 26.7 25.14 27.01 25.14 27.39L25.14 29.07Z" />
				</g>
				<g id="XMLID_1550_">
					<path id="XMLID_210_" class="shp1" d="M11.48 21.06C11.3 21.06 11.12 20.98 10.99 20.85C10.86 20.72 10.78 20.54 10.78 20.36C10.78 20.18 10.86 20 10.99 19.87C11.12 19.74 11.3 19.66 11.48 19.66C11.66 19.66 11.84 19.74 11.97 19.87C12.1 20 12.18 20.18 12.18 20.36C12.18 20.54 12.1 20.72 11.97 20.85C11.84 20.98 11.66 21.06 11.48 21.06Z" />
				</g>
				<g id="XMLID_2814_">
					<path id="XMLID_207_" fill-rule="evenodd" class="shp1" d="M25.98 34.2C21.38 34.2 17.64 30.46 17.64 25.86C17.64 21.26 21.38 17.52 25.98 17.52C30.58 17.52 34.32 21.26 34.32 25.86C34.32 30.46 30.58 34.2 25.98 34.2ZM19.03 25.86C19.03 29.69 22.15 32.81 25.98 32.81C29.81 32.81 32.92 29.69 32.92 25.86C32.92 22.03 29.81 18.91 25.98 18.91C22.15 18.91 19.03 22.03 19.03 25.86Z" />
				</g>
			</g>
		</g>
	</g>
</svg>