<svg xmlns="http://www.w3.org/2000/svg" viewBox="0 0 61 62" width="61" height="62">
	<defs>
		<clipPath clipPathUnits="userSpaceOnUse" id="cp1">
			<path d="M-922 -1195L444 -1195L444 3094L-922 3094Z" />
		</clipPath>
	</defs>
	<style>
		tspan { white-space:pre }
		.shp0 { fill: #0065ab } 
	</style>
	<g id="01 Home" clip-path="url(#cp1)">
		<g id="insurance-clipboard-document-report-security">
			<path id="Path 75" fill-rule="evenodd" class="shp0" d="M26 7.01C26 8.67 24.66 10.01 23 10.01C21.34 10.01 20 8.67 20 7.01C20 5.35 21.34 4.01 23 4.01C24.66 4.01 26 5.35 26 7.01ZM24 7.01C24 6.46 23.55 6.01 23 6.01C22.45 6.01 22 6.46 22 7.01C22 7.56 22.45 8.01 23 8.01C23.55 8.01 24 7.56 24 7.01Z" />
			<path id="Path 76" class="shp0" d="M10 32.01L14 32.01L14 34.01L10 34.01L10 32.01Z" />
			<path id="Path 77" class="shp0" d="M16 32.01L31 32.01L31 34.01L16 34.01L16 32.01Z" />
			<path id="Path 78" class="shp0" d="M10 38.01L14 38.01L14 40.01L10 40.01L10 38.01Z" />
			<path id="Path 79" class="shp0" d="M10 44.01L14 44.01L14 46.01L10 46.01L10 44.01Z" />
			<path id="Path 80" class="shp0" d="M10 50.01L14 50.01L14 52.01L10 52.01L10 50.01Z" />
			<path id="Path 81" fill-rule="evenodd" class="shp0" d="M60 34.01C60.55 34.01 61 34.46 61 35.01L61 48.79C61.01 52.12 59.16 55.19 56.21 56.74L47.43 60.91C47.16 61.04 46.84 61.04 46.57 60.91L44.35 59.86C43.78 60.58 42.92 61 42 61.01L4 61.01C2.35 61 1 59.66 1 58.01L1 10.01C1 8.35 2.35 7.01 4 7.01L12.18 7.01C12.61 5.81 13.73 5.02 15 5.01L17.34 5.01C18.18 2.61 20.45 1 23 1C25.55 1 27.82 2.61 28.66 5.01L31 5.01C32.27 5.02 33.39 5.81 33.82 7.01L42 7.01C43.65 7.01 45 8.35 45 10.01L45 30.26L46.4 29.21C46.75 28.94 47.25 28.94 47.6 29.21L50 31.01C52.6 32.95 55.76 34 59 34.01L60 34.01ZM34 11.01L40 11.01C40.55 11.01 41 11.46 41 12.01L41 32.75C41.69 32.45 42.36 32.1 43 31.7L43 10.01C43 9.46 42.55 9.01 42 9.01L34 9.01L34 11.01ZM14 12.01L32 12.01L32 8.01C32 7.46 31.55 7.01 31 7.01L27.9 7.01C27.42 7.01 27.01 6.68 26.92 6.21C26.54 4.34 24.9 3 23 3C21.1 3 19.46 4.34 19.08 6.21C18.99 6.68 18.58 7.01 18.1 7.01L15 7.01C14.45 7.01 14 7.46 14 8.01L14 12.01ZM42 59.01C42.13 59 42.26 58.97 42.38 58.92L38.36 57.01L6 57.01C5.45 57.01 5 56.56 5 56.01L5 12.01C5 11.46 5.45 11.01 6 11.01L12 11.01L12 9.01L4 9.01C3.45 9.01 3 9.46 3 10.01L3 58.01C3 58.56 3.45 59.01 4 59.01L42 59.01L42 59.01ZM13 14.01C12.45 14.01 12 13.56 12 13.01L7 13.01L7 55.01L35.52 55.01C34.69 54.15 34.04 53.13 33.61 52.01L16 52.01L16 50.01L33.08 50.01C33.03 49.6 33 49.2 33 48.79L33 46.01L16 46.01L16 44.01L33 44.01L33 40.01L16 40.01L16 38.01L33 38.01L33 35.01C33 34.46 33.45 34.01 34 34.01L35 34.01C36.35 34 37.7 33.81 39 33.45L39 13.01L34 13.01C34 13.56 33.55 14.01 33 14.01L13 14.01ZM59 36.01C55.32 36 51.75 34.81 48.8 32.61L47 31.26L45.2 32.61C42.25 34.81 38.68 36 35 36.01L35 48.79C35 51.37 36.43 53.75 38.71 54.96L47 58.9L55.31 54.95C57.59 53.74 59.01 51.37 59 48.79L59 36.01Z" />
			<path id="Path 82" fill-rule="evenodd" class="shp0" d="M30 21.01L30 25.01C30 25.56 29.55 26.01 29 26.01L26 26.01L26 29.01C26 29.56 25.55 30.01 25 30.01L21 30.01C20.45 30.01 20 29.56 20 29.01L20 26.01L17 26.01C16.45 26.01 16 25.56 16 25.01L16 21.01C16 20.46 16.45 20.01 17 20.01L20 20.01L20 17.01C20 16.46 20.45 16.01 21 16.01L25 16.01C25.55 16.01 26 16.46 26 17.01L26 20.01L29 20.01C29.55 20.01 30 20.46 30 21.01ZM28 22.01L25 22.01C24.45 22.01 24 21.56 24 21.01L24 18.01L22 18.01L22 21.01C22 21.56 21.55 22.01 21 22.01L18 22.01L18 24.01L21 24.01C21.55 24.01 22 24.46 22 25.01L22 28.01L24 28.01L24 25.01C24 24.46 24.45 24.01 25 24.01L28 24.01L28 22.01Z" />
			<path id="Path 83" fill-rule="evenodd" class="shp0" d="M56.15 37.79C56.64 37.87 57 38.29 57 38.78L57 48.79C57 50.61 56.01 52.28 54.42 53.16L47.43 56.48C47.16 56.61 46.84 56.61 46.57 56.48L39.64 53.19L39.58 53.16C37.99 52.28 37 50.61 37 48.79L37 38.78C37 38.29 37.36 37.87 37.85 37.79C40.95 37.32 43.89 36.09 46.4 34.21C46.75 33.94 47.25 33.94 47.6 34.21C50.11 36.09 53.05 37.32 56.15 37.79ZM55 39.62C52.13 39.06 49.4 37.91 47 36.24C44.6 37.91 41.87 39.06 39 39.62L39 48.79C39 49.87 39.58 50.87 40.52 51.4L47 54.47L53.5 51.38C54.43 50.85 55.01 49.86 55 48.79L55 39.62Z" />
			<path id="Path 84" class="shp0" d="M42.71 46.3L41.29 47.72L44.29 50.72C44.68 51.11 45.32 51.11 45.71 50.72L53.71 42.72L52.29 41.3L45 48.59L42.71 46.3Z" />
		</g>
	</g>
</svg>