<svg xmlns="http://www.w3.org/2000/svg" viewBox="0 0 49 49" width="49" height="49">
	<defs>
		<clipPath clipPathUnits="userSpaceOnUse" id="cp1">
			<path d="M-1197 -1448L169 -1448L169 2841L-1197 2841Z" />
		</clipPath>
	</defs>
	<style>
		tspan { white-space:pre }
		.shp0 { opacity: 0.514;fill: none;stroke: #707070 } 
		.shp1 { fill: #0065ab } 
	</style>
	<g id="01 Home" clip-path="url(#cp1)">
		<path id="Ellipse 22" class="shp0" d="M24.5 0C38.05 0 49 10.95 49 24.5C49 38.05 38.05 49 24.5 49C10.95 49 0 38.05 0 24.5C0 10.95 10.95 0 24.5 0Z" />
		<path id="Path 127" class="shp1" d="M18.96 23.62L19.26 23.62C24.04 23.62 28.82 23.62 33.6 23.62C34.28 23.62 34.73 24.24 34.51 24.86C34.38 25.24 34.03 25.46 33.58 25.46C29.36 25.46 25.15 25.46 20.94 25.46C20.36 25.46 19.77 25.46 19.19 25.46C19.11 25.46 19.03 25.47 18.9 25.47C18.99 25.58 19.05 25.65 19.12 25.71C20.69 27.29 22.26 28.86 23.83 30.43C24.05 30.64 24.18 30.88 24.17 31.19C24.16 31.56 24 31.84 23.67 31.99C23.34 32.14 23 32.13 22.69 31.9C22.62 31.85 22.57 31.79 22.51 31.73C20.36 29.58 18.21 27.43 16.06 25.28C15.59 24.8 15.59 24.28 16.06 23.8C18.22 21.65 20.37 19.49 22.52 17.33C22.82 17.03 23.16 16.93 23.55 17.05C24.16 17.22 24.38 17.99 23.98 18.49C23.92 18.56 23.86 18.63 23.8 18.69C22.24 20.25 20.68 21.81 19.11 23.37C19.05 23.43 18.99 23.5 18.94 23.56C18.94 23.58 18.95 23.6 18.96 23.62Z" />
	</g>
</svg>