<svg xmlns="http://www.w3.org/2000/svg" viewBox="0 0 61 57" width="61" height="57">
	<defs>
		<clipPath clipPathUnits="userSpaceOnUse" id="cp1">
			<path d="M-547 -1192L819 -1192L819 3097L-547 3097Z" />
		</clipPath>
	</defs>
	<style>
		tspan { white-space:pre }
		.shp0 { fill: #0065ab;stroke: #0065ab } 
	</style>
	<g id="01 Home" clip-path="url(#cp1)">
		<g id="medicine (1)">
			<path id="Path 69" fill-rule="evenodd" class="shp0" d="M55.92 23.42C60.32 27.82 60.32 34.96 55.92 39.36C51.52 43.76 44.38 43.76 39.98 39.36L20.87 20.24C16.46 15.84 16.46 8.7 20.87 4.3C25.27 -0.1 32.41 -0.1 36.81 4.3L55.92 23.41L55.92 23.42ZM19.13 12.27C19.12 14.85 20.15 17.32 21.97 19.14L30.98 28.14L44.71 14.41L35.7 5.41C32.93 2.63 28.75 1.81 25.12 3.31C21.5 4.81 19.13 8.35 19.13 12.27ZM54.82 24.52L45.81 15.52L32.08 29.25L41.09 38.25C44.88 42.04 51.02 42.04 54.82 38.25C58.6 34.46 58.6 28.31 54.82 24.52Z" />
			<path id="Path 70" class="shp0" d="M31.97 9.14C32.28 9.45 32.77 9.45 33.08 9.14C33.38 8.83 33.38 8.34 33.08 8.03C30.73 5.7 26.94 5.7 24.6 8.03C24.29 8.34 24.29 8.83 24.6 9.14C24.9 9.45 25.4 9.45 25.71 9.14C27.44 7.41 30.24 7.41 31.97 9.14Z" />
			<path id="Path 71" fill-rule="evenodd" class="shp0" d="M15.23 29.08C22.53 29.09 28.45 35.01 28.46 42.31C28.46 49.62 22.54 55.54 15.23 55.54C7.92 55.54 2 49.62 2 42.31C2 35.01 7.92 29.08 15.23 29.08ZM15.23 53.98C21.67 53.97 26.89 48.75 26.9 42.31C26.9 35.87 21.67 30.65 15.23 30.65C8.79 30.65 3.56 35.87 3.56 42.31C3.56 48.76 8.79 53.98 15.23 53.98L15.23 53.98Z" />
			<path id="Path 72" class="shp0" d="M19.96 36.48L9.4 47.04C9.09 47.35 9.09 47.84 9.4 48.15C9.7 48.45 10.2 48.45 10.5 48.15L21.06 37.59C21.37 37.28 21.37 36.79 21.06 36.48C20.76 36.17 20.26 36.17 19.96 36.48L19.96 36.48Z" />
		</g>
	</g>
</svg>