<svg xmlns="http://www.w3.org/2000/svg" viewBox="0 0 53 53" width="53" height="53">
	<defs>
		<clipPath clipPathUnits="userSpaceOnUse" id="cp1">
			<path d="M-1054 -487L312 -487L312 3802L-1054 3802Z" />
		</clipPath>
	</defs>
	<style>
		tspan { white-space:pre }
		.shp0 { opacity: 0.216;fill: #ffffff } 
		.shp1 { fill: #ffffff } 
	</style>
	<g id="01 Home" clip-path="url(#cp1)">
		<g id="Group 88">
			<path id="Ellipse 21" class="shp0" d="M26.5 53C11.85 53 0 41.15 0 26.5C0 11.85 11.85 0 26.5 0C41.15 0 53 11.85 53 26.5C53 41.15 41.15 53 26.5 53Z" />
			<g id="payment">
				<g id="Group 85">
					<g id="Group 84">
						<path id="Rectangle 44" class="shp1" d="M33.31 30.75L36.59 30.75L36.59 31.84L33.31 31.84L33.31 30.75Z" />
						<path id="Rectangle 45" class="shp1" d="M28.95 30.75L32.22 30.75L32.22 31.84L28.95 31.84L28.95 30.75Z" />
						<path id="Rectangle 46" class="shp1" d="M24.59 30.75L27.86 30.75L27.86 31.84L24.59 31.84L24.59 30.75Z" />
						<path id="Path 125" fill-rule="evenodd" class="shp1" d="M42.52 21.44C42.52 21.88 42.34 22.29 42.03 22.59L39.31 25.31L39.31 37.84C39.31 38.74 38.58 39.48 37.68 39.48L25.15 39.48L23.52 41.1C23.21 41.41 22.8 41.59 22.37 41.59L22.36 41.59C21.93 41.59 21.51 41.41 21.2 41.1L19.58 39.48L11.49 39.48C10.59 39.48 9.86 38.74 9.86 37.84L9.86 22.57C9.86 21.66 10.59 20.93 11.49 20.93L17.48 20.93L28.92 9.48C29.23 9.17 29.64 9 30.08 9L30.08 9C30.52 9 30.93 9.17 31.24 9.48L42.03 20.28C42.34 20.58 42.52 21 42.52 21.44ZM32.78 12.56L24.41 20.93L29.04 20.93L35.09 14.88L32.78 12.56ZM19.02 20.93L22.87 20.93L32.01 11.79L30.47 10.25C30.46 10.25 30.46 10.25 30.46 10.24C30.25 10.04 29.9 10.04 29.7 10.25L19.02 20.93ZM23.61 39.48L21.12 39.48L21.98 40.34C22.08 40.44 22.22 40.5 22.36 40.5C22.51 40.5 22.65 40.44 22.75 40.34L23.61 39.48ZM38.22 30.2L10.95 30.2L10.95 37.84C10.95 38.14 11.19 38.38 11.49 38.38L37.68 38.38C37.98 38.38 38.22 38.14 38.22 37.84L38.22 30.2ZM38.22 25.84L10.95 25.84L10.95 29.11L38.22 29.11L38.22 25.84ZM38.22 22.57C38.22 22.27 37.98 22.02 37.68 22.02L11.49 22.02C11.19 22.02 10.95 22.27 10.95 22.57L10.95 24.75L38.22 24.75L38.22 22.57ZM41.42 21.44C41.42 21.29 41.36 21.15 41.26 21.05L35.86 15.65L30.59 20.93L37.68 20.93C38.58 20.93 39.31 21.66 39.31 22.57L39.31 23.77L41.26 21.82C41.36 21.72 41.42 21.58 41.42 21.44Z" />
						<path id="Path 126" fill-rule="evenodd" class="shp1" d="M12.01 37.09C11.22 36.17 11.32 34.8 12.23 34.01C13.15 33.22 14.52 33.32 15.31 34.23C15.64 33.85 16.1 33.59 16.6 33.51C16.6 33.51 16.61 33.51 16.61 33.51L16.63 33.5C16.73 33.48 16.84 33.47 16.95 33.48C18.15 33.48 19.13 34.45 19.13 35.66C19.12 36.37 18.77 37.04 18.18 37.46C17.27 38.09 16.03 37.93 15.31 37.09C15.24 37.17 15.17 37.24 15.09 37.31C14.18 38.1 12.8 38 12.01 37.09ZM15.88 35.64C15.87 36.24 16.35 36.74 16.95 36.75C17.26 36.75 17.55 36.62 17.75 36.39C17.76 36.39 17.76 36.38 17.77 36.38C17.79 36.35 17.81 36.32 17.83 36.3C17.96 36.11 18.04 35.89 18.04 35.66C18.04 35.05 17.55 34.57 16.95 34.57C16.9 34.57 16.86 34.57 16.81 34.58C16.28 34.65 15.89 35.1 15.88 35.64ZM12.59 35.66C12.59 36.26 13.07 36.75 13.68 36.75C14.28 36.75 14.77 36.26 14.77 35.66C14.77 35.05 14.28 34.57 13.68 34.57C13.07 34.57 12.59 35.05 12.59 35.66Z" />
					</g>
				</g>
			</g>
		</g>
	</g>
</svg>