<svg xmlns="http://www.w3.org/2000/svg" viewBox="0 0 53 53" width="53" height="53">
	<defs>
		<clipPath clipPathUnits="userSpaceOnUse" id="cp1">
			<path d="M-721 -487L645 -487L645 3802L-721 3802Z" />
		</clipPath>
	</defs>
	<style>
		tspan { white-space:pre }
		.shp0 { fill: #ffffff } 
		.shp1 { opacity: 0.216;fill: #ffffff } 
	</style>
	<g id="01 Home" clip-path="url(#cp1)">
		<g id="return">
			<path id="Path 121" fill-rule="evenodd" class="shp0" d="M43 19.31L43 24.14C43 24.52 42.69 24.83 42.3 24.83C41.92 24.83 41.61 24.52 41.61 24.14L41.61 20.48L37.62 22.67L37.62 27.01C37.62 27.27 37.48 27.5 37.26 27.62L34.29 29.26C34.18 29.31 34.07 29.34 33.95 29.34C33.83 29.34 33.71 29.31 33.6 29.25C33.39 29.12 33.26 28.89 33.26 28.65L33.26 25.07L29.14 27.33L29.14 40.96L41.61 34.11L41.61 29.7C41.61 29.31 41.92 29 42.3 29C42.69 29 43 29.31 43 29.7L43 34.53C43 34.78 42.86 35.01 42.64 35.13L28.78 42.74C28.68 42.8 28.56 42.83 28.45 42.83C28.33 42.83 28.21 42.8 28.11 42.74L25.12 41.1C24.66 42.12 24.02 43.06 23.2 43.87C21.43 45.65 19.06 46.58 16.66 46.58C15.28 46.58 13.9 46.28 12.6 45.65C12.26 45.48 12.12 45.06 12.28 44.72C12.45 44.37 12.87 44.23 13.21 44.4C16.23 45.87 19.85 45.27 22.22 42.89C23.7 41.41 24.52 39.43 24.52 37.34C24.52 35.24 23.7 33.26 22.22 31.78C20.74 30.3 18.76 29.48 16.66 29.48C14.56 29.48 12.59 30.3 11.11 31.78C8.73 34.15 8.13 37.77 9.6 40.79C9.77 41.13 9.63 41.55 9.28 41.72C8.94 41.88 8.52 41.74 8.35 41.4C6.62 37.85 7.33 33.59 10.12 30.8C11.2 29.72 12.48 28.95 13.89 28.51L13.89 19.31C13.89 19.05 14.03 18.82 14.25 18.7L22.59 14.12C22.67 14.04 22.78 13.98 22.89 13.95L28.11 11.09C28.32 10.97 28.57 10.97 28.78 11.09L42.64 18.7C42.86 18.82 43 19.05 43 19.31ZM24.53 14.64L36.94 21.46L40.86 19.31L28.45 12.49L24.53 14.64ZM32.51 23.89L20.09 17.08L16.03 19.31L28.45 26.12L32.51 23.89ZM35.5 22.25L23.08 15.43L21.53 16.28L33.95 23.1L35.5 22.25ZM25.91 37.34C25.91 38.17 25.8 38.99 25.59 39.77L27.75 40.96L27.75 27.33L15.28 20.48L15.28 28.19C15.73 28.12 16.2 28.09 16.66 28.09C19.13 28.09 21.46 29.05 23.2 30.8C24.95 32.54 25.91 34.87 25.91 37.34ZM36.23 23.44L34.65 24.3L34.65 27.47L36.23 26.6L36.23 23.44Z" />
			<path id="Path 122" class="shp0" d="M42.3 26.22C42.12 26.22 41.94 26.29 41.81 26.42C41.68 26.55 41.61 26.73 41.61 26.91C41.61 27.09 41.68 27.27 41.81 27.4C41.94 27.53 42.12 27.61 42.3 27.61C42.49 27.61 42.67 27.53 42.8 27.4C42.92 27.27 43 27.09 43 26.91C43 26.73 42.92 26.55 42.8 26.42C42.67 26.29 42.49 26.22 42.3 26.22Z" />
			<path id="Path 123" class="shp0" d="M14.33 38.03C14.5 38.03 14.68 37.96 14.82 37.83C15.09 37.56 15.09 37.12 14.82 36.84L14.34 36.36L18.44 36.36C19.44 36.36 20.25 37.17 20.25 38.17C20.25 39.17 19.44 39.98 18.44 39.98L16.01 39.98C15.63 39.98 15.32 40.29 15.32 40.67C15.32 41.06 15.63 41.37 16.01 41.37L18.44 41.37C20.21 41.37 21.64 39.93 21.64 38.17C21.64 36.41 20.21 34.97 18.44 34.97L14.34 34.97L14.82 34.49C15.09 34.22 15.09 33.78 14.82 33.51C14.55 33.24 14.11 33.24 13.84 33.51L12.17 35.18C11.9 35.45 11.9 35.89 12.17 36.16L13.84 37.83C13.97 37.96 14.15 38.03 14.33 38.03Z" />
			<path id="Path 124" class="shp0" d="M10.62 44.08C10.42 44.08 10.22 44 10.09 43.83L10.08 43.83C9.84 43.54 9.87 43.1 10.17 42.85C10.46 42.6 10.9 42.64 11.15 42.94C11.39 43.23 11.36 43.67 11.06 43.92C10.93 44.03 10.77 44.08 10.62 44.08Z" />
			<path id="Ellipse 20" class="shp1" d="M26.5 53C11.85 53 0 41.15 0 26.5C0 11.85 11.85 0 26.5 0C41.15 0 53 11.85 53 26.5C53 41.15 41.15 53 26.5 53Z" />
		</g>
	</g>
</svg>