<svg xmlns="http://www.w3.org/2000/svg" viewBox="0 0 49 49" width="49" height="49">
	<defs>
		<clipPath clipPathUnits="userSpaceOnUse" id="cp1">
			<path d="M-1253 -1448L113 -1448L113 2841L-1253 2841Z" />
		</clipPath>
	</defs>
	<style>
		tspan { white-space:pre }
		.shp0 { opacity: 0.514;fill: none;stroke: #707070 } 
		.shp1 { fill: #0065ab } 
	</style>
	<g id="01 Home" clip-path="url(#cp1)">
		<path id="Ellipse 23" class="shp0" d="M24.5 49C10.95 49 0 38.05 0 24.5C0 10.95 10.95 0 24.5 0C38.05 0 49 10.95 49 24.5C49 38.05 38.05 49 24.5 49Z" />
		<path id="Path 128" class="shp1" d="M30.04 25.47L29.74 25.47C24.96 25.47 20.18 25.47 15.4 25.47C14.72 25.47 14.27 24.85 14.49 24.23C14.62 23.85 14.97 23.63 15.42 23.63C19.64 23.63 23.85 23.63 28.06 23.63C28.64 23.63 29.23 23.63 29.81 23.63C29.89 23.63 29.97 23.62 30.1 23.62C30 23.51 29.95 23.44 29.88 23.37C28.31 21.8 26.74 20.23 25.17 18.66C24.95 18.45 24.82 18.21 24.83 17.9C24.84 17.53 25 17.25 25.33 17.1C25.66 16.95 26 16.96 26.31 17.19C26.38 17.24 26.43 17.3 26.49 17.36C28.64 19.51 30.79 21.66 32.94 23.81C33.41 24.28 33.41 24.81 32.94 25.29C30.78 27.44 28.63 29.6 26.48 31.76C26.18 32.06 25.84 32.16 25.45 32.04C24.84 31.86 24.62 31.1 25.02 30.59C25.08 30.53 25.14 30.46 25.2 30.4C26.76 28.84 28.32 27.28 29.89 25.72C29.95 25.66 30 25.59 30.06 25.53C30.06 25.51 30.05 25.49 30.04 25.47Z" />
	</g>
</svg>