<svg xmlns="http://www.w3.org/2000/svg" viewBox="0 0 53 53" width="53" height="53">
	<defs>
		<clipPath clipPathUnits="userSpaceOnUse" id="cp1">
			<path d="M-430 -486L936 -486L936 3803L-430 3803Z" />
		</clipPath>
	</defs>
	<style>
		tspan { white-space:pre }
		.shp0 { opacity: 0.216;fill: #ffffff } 
		.shp1 { fill: #ffffff } 
	</style>
	<g id="01 Home" clip-path="url(#cp1)">
		<g id="Group 89">
			<path id="Ellipse 19" class="shp0" d="M26.5 53C11.85 53 0 41.15 0 26.5C0 11.85 11.85 0 26.5 0C41.15 0 53 11.85 53 26.5C53 41.15 41.15 53 26.5 53Z" />
			<g id="truck-2">
				<g id="Group 73">
					<g id="Group 72">
						<path id="Path 115" fill-rule="evenodd" class="shp1" d="M42.5 27.23L42.5 33.07C42.5 33.38 42.25 33.62 41.95 33.62L40.16 33.62C40.16 33.63 40.16 33.65 40.16 33.66C40.16 35.57 38.61 37.13 36.69 37.13C34.78 37.13 33.23 35.57 33.23 33.66C33.23 33.65 33.23 33.63 33.23 33.62L20.88 33.62C20.88 33.63 20.88 33.65 20.88 33.66C20.88 35.57 19.33 37.13 17.42 37.13C15.5 37.13 13.95 35.57 13.95 33.66C13.95 33.65 13.95 33.63 13.95 33.62L10.99 33.62C10.36 33.62 9.86 33.11 9.86 32.49L9.86 31.28L8.07 31.28C7.77 31.28 7.52 31.04 7.52 30.74C7.52 30.43 7.77 30.19 8.07 30.19L13.33 30.19C13.63 30.19 13.87 30.43 13.87 30.74C13.87 31.04 13.63 31.28 13.33 31.28L10.95 31.28L10.95 32.49C10.95 32.51 10.97 32.53 10.99 32.53L14.14 32.53C14.61 31.17 15.9 30.19 17.42 30.19C18.93 30.19 20.22 31.17 20.69 32.53L32.06 32.53L32.06 28.4C32.06 28.1 32.3 27.85 32.6 27.85C32.91 27.85 33.15 28.1 33.15 28.4L33.15 32.53L33.42 32.53C33.89 31.17 35.18 30.19 36.69 30.19C38.21 30.19 39.5 31.17 39.97 32.53L41.4 32.53L41.4 30.12L40.78 30.12C39.84 30.12 39.07 29.35 39.07 28.4L39.07 27.23C39.07 26.93 39.31 26.68 39.62 26.68L41.32 26.68C41.09 25.97 40.41 25.44 39.62 25.44C39.62 25.44 39.62 25.44 39.61 25.44C39.61 25.44 39.61 25.44 39.61 25.44L33.15 25.44L33.15 26.06C33.15 26.37 32.91 26.61 32.6 26.61C32.3 26.61 32.06 26.37 32.06 26.06L32.06 16.13C32.06 16.11 32.04 16.1 32.02 16.1L10.99 16.1C10.97 16.1 10.95 16.11 10.95 16.13L10.95 26.06C10.95 26.37 10.71 26.61 10.4 26.61C10.1 26.61 9.86 26.37 9.86 26.06L9.86 16.13C9.86 15.51 10.36 15 10.99 15L32.02 15C32.64 15 33.15 15.51 33.15 16.13L33.15 17.34L37.28 17.34C38.55 17.34 39.58 18.37 39.58 19.64L39.58 20.22C39.58 20.48 39.39 20.7 39.15 20.76L40.05 24.38C41.44 24.59 42.5 25.79 42.5 27.23ZM33.15 19.67L38.48 19.67L38.48 19.64C38.48 18.97 37.94 18.43 37.28 18.43L33.15 18.43L33.15 19.67ZM38.91 24.35L38.02 20.77L33.15 20.77L33.15 24.35L38.91 24.35ZM19.79 33.66C19.79 32.35 18.72 31.28 17.42 31.28C16.11 31.28 15.04 32.35 15.04 33.66C15.04 34.97 16.11 36.03 17.42 36.03C18.72 36.03 19.79 34.97 19.79 33.66ZM39.07 33.66C39.07 32.35 38 31.28 36.69 31.28C35.39 31.28 34.32 32.35 34.32 33.66C34.32 34.97 35.39 36.03 36.69 36.03C38 36.03 39.07 34.97 39.07 33.66ZM41.4 29.02L41.4 27.78L40.16 27.78L40.16 28.4C40.16 28.74 40.44 29.02 40.78 29.02L41.4 29.02Z" />
					</g>
				</g>
				<g id="Group 75">
					<g id="Group 74">
						<path id="Path 116" class="shp1" d="M17.42 32.53C16.79 32.53 16.28 33.03 16.28 33.66C16.28 34.28 16.79 34.79 17.42 34.79C18.04 34.79 18.55 34.28 18.55 33.66C18.55 33.03 18.04 32.53 17.42 32.53Z" />
					</g>
				</g>
				<g id="Group 77">
					<g id="Group 76">
						<path id="Path 117" class="shp1" d="M36.69 32.53C36.07 32.53 35.56 33.03 35.56 33.66C35.56 34.28 36.07 34.79 36.69 34.79C37.32 34.79 37.83 34.28 37.83 33.66C37.83 33.03 37.32 32.53 36.69 32.53Z" />
					</g>
				</g>
				<g id="Group 79">
					<g id="Group 78">
						<path id="Path 118" class="shp1" d="M30.27 30.19L22.09 30.19C21.79 30.19 21.54 30.43 21.54 30.74C21.54 31.04 21.79 31.29 22.09 31.29L30.27 31.29C30.57 31.29 30.82 31.04 30.82 30.74C30.82 30.43 30.57 30.19 30.27 30.19Z" />
					</g>
				</g>
				<g id="Group 81">
					<g id="Group 80">
						<path id="Path 119" class="shp1" d="M16.25 27.85L9.24 27.85C8.93 27.85 8.69 28.1 8.69 28.4C8.69 28.7 8.93 28.95 9.24 28.95L16.25 28.95C16.55 28.95 16.79 28.7 16.79 28.4C16.79 28.1 16.55 27.85 16.25 27.85Z" />
					</g>
				</g>
				<g id="Group 83">
					<g id="Group 82">
						<path id="Path 120" class="shp1" d="M26.57 20.42C26.35 20.2 26.01 20.2 25.79 20.42L20.92 25.29L18.39 22.76C18.17 22.54 17.83 22.54 17.61 22.76C17.4 22.97 17.4 23.32 17.61 23.53L20.53 26.45C20.64 26.56 20.78 26.61 20.92 26.61C21.06 26.61 21.2 26.56 21.31 26.45L26.57 21.19C26.78 20.98 26.78 20.63 26.57 20.42Z" />
					</g>
				</g>
			</g>
		</g>
	</g>
</svg>