<svg xmlns="http://www.w3.org/2000/svg" viewBox="0 0 30 30" width="30" height="30">
	<defs>
		<clipPath clipPathUnits="userSpaceOnUse" id="cp1">
			<path d="M-1023 -4202L343 -4202L343 87L-1023 87Z" />
		</clipPath>
	</defs>
	<style>
		tspan { white-space:pre }
		.shp0 { fill: #004f86 } 
		.shp1 { fill: #ffffff } 
	</style>
	<g id="01 Home" clip-path="url(#cp1)">
		<g id="Group 9">
			<path id="Ellipse 2" class="shp0" d="M14.92 29.84C6.67 29.84 0 23.17 0 14.92C0 6.67 6.67 0 14.92 0C23.17 0 29.84 6.67 29.84 14.92C29.84 23.17 23.17 29.84 14.92 29.84Z" />
			<path id="Path 38" class="shp1" d="M12.74 14.93L11.27 14.93L11.27 12.28L12.73 12.28C12.73 11.79 12.71 11.32 12.74 10.87C12.78 10.35 12.82 9.82 12.96 9.33C13.31 8.18 14.16 7.57 15.32 7.47C16.24 7.39 17.17 7.44 18.1 7.44C18.12 7.44 18.15 7.45 18.18 7.46L18.18 10C18 10 17.83 10 17.66 10C17.26 10 16.85 10 16.45 10.02C16.1 10.04 15.89 10.23 15.87 10.57C15.85 11.13 15.87 11.7 15.87 12.28L18.23 12.28L17.96 14.92L15.86 14.92L15.86 22.42L12.74 22.42L12.74 14.93Z" />
		</g>
	</g>
</svg>