<svg xmlns="http://www.w3.org/2000/svg" viewBox="0 0 30 30" width="30" height="30">
	<defs>
		<clipPath clipPathUnits="userSpaceOnUse" id="cp1">
			<path d="M-1059 -4202L307 -4202L307 87L-1059 87Z" />
		</clipPath>
	</defs>
	<style>
		tspan { white-space:pre }
		.shp0 { fill: #004f86 } 
		.shp1 { fill: #ffffff } 
	</style>
	<g id="01 Home" clip-path="url(#cp1)">
		<g id="Group 10">
			<path id="Ellipse 3" class="shp0" d="M15.06 29.84C6.81 29.84 0.14 23.17 0.14 14.92C0.14 6.67 6.81 0 15.06 0C23.31 0 29.98 6.67 29.98 14.92C29.98 23.17 23.31 29.84 15.06 29.84Z" />
			<path id="Path 39" fill-rule="evenodd" class="shp1" d="M10.9 22.39C8.89 22.11 7.51 20.6 7.44 18.58C7.36 16.15 7.35 13.71 7.44 11.29C7.52 9.11 9.15 7.48 11.35 7.4C13.82 7.32 16.3 7.31 18.77 7.4C21.01 7.49 22.61 9.15 22.68 11.39C22.75 13.72 22.76 16.05 22.68 18.38C22.61 20.78 20.99 22.36 18.61 22.48C17.42 22.54 16.23 22.49 15.05 22.49M15.08 8.73C13.95 8.73 12.82 8.69 11.69 8.73C9.92 8.8 8.83 9.86 8.79 11.62C8.73 13.83 8.73 16.03 8.79 18.24C8.83 20 9.92 21.08 11.68 21.12C13.93 21.17 16.18 21.17 18.42 21.12C20.18 21.09 21.27 20.03 21.32 18.28C21.38 16.05 21.38 13.81 21.32 11.58C21.27 9.84 20.18 8.8 18.43 8.73C17.31 8.69 16.19 8.73 15.08 8.73Z" />
			<path id="Path 40" fill-rule="evenodd" class="shp1" d="M15.06 18.84C12.87 18.84 11.09 17.1 11.09 14.94C11.08 12.78 12.85 11.02 15.04 11.02C17.24 11.02 19.01 12.76 19.02 14.92C19.03 17.08 17.25 18.84 15.06 18.84ZM17.62 14.94C17.63 13.53 16.49 12.39 15.07 12.38C13.64 12.38 12.49 13.51 12.48 14.92C12.48 16.33 13.62 17.48 15.04 17.48C16.47 17.48 17.62 16.35 17.62 14.94Z" />
			<path id="Path 41" class="shp1" d="M20.09 10.84C20.1 11.34 19.7 11.76 19.19 11.77C18.69 11.78 18.27 11.38 18.27 10.87C18.26 10.36 18.66 9.95 19.16 9.94C19.66 9.93 20.08 10.33 20.09 10.84Z" />
		</g>
	</g>
</svg>