<svg xmlns="http://www.w3.org/2000/svg" viewBox="0 0 219 53" width="219" height="53">
	<defs>
		<clipPath clipPathUnits="userSpaceOnUse" id="cp1">
			<path d="M-146 -4048L1220 -4048L1220 241L-146 241Z" />
		</clipPath>
	</defs>
	<style>
		tspan { white-space:pre }
		.shp0 { fill: #ffffff } 
		.shp1 { fill: #d90010 } 
		.txt2 { font-size: 9px;line-height: 11px;fill: #ffffff;font-family: "FiraSans-Italic" } 
	</style>
	<g id="01 Home" clip-path="url(#cp1)">
		<g id="Group 70">
			<path id="Path 103" class="shp0" d="M1 37.37C9.57 42.52 26.08 40.72 26.22 27.74C25.6 20.12 20.97 19.86 15.74 16.1C14.12 14.93 12.79 13.41 14.41 11.23C16.14 8.88 20.99 8.46 25.98 10.69C26.82 8.54 27.66 6.39 28.5 4.24C21.28 0.65 8 2.2 5.74 11.81C4.96 16.17 6.39 18.97 8.79 21.09C10.68 22.77 12.97 23.76 15.05 25.14C17.66 26.89 19.47 29.05 16.67 31.98C13.91 34.02 8.42 33.63 3.64 31C2.76 33.13 1.88 35.25 1 37.37Z" />
			<path id="Path 104" fill-rule="evenodd" class="shp0" d="M39.92 33.58C43.61 34.56 46.93 33.87 50.06 32.23C50.25 34.15 50.45 36.06 50.64 37.97C49.45 38.54 48.2 39.02 46.85 39.38C44.29 40.06 41.49 40.26 38.87 39.93C33.46 39.24 29.58 36.02 29.38 29.07C29.64 20.25 34.68 14.79 41.39 12.84C47.28 11.62 54.53 13.74 53.86 21.1C53.81 22.42 53.48 23.54 52.93 24.48C50.64 28.38 44.42 29.34 36.88 29.31C36.83 31.49 37.97 32.83 39.92 33.58ZM43.08 23.27C44.88 22.92 47.01 22.2 46.63 19.98C46.52 19.37 46.16 18.92 45.54 18.62C43.49 17.61 41.05 18.42 39.51 19.98C38.53 20.97 37.99 22.24 37.6 23.61C39.8 23.67 41.6 23.55 43.08 23.27Z" />
			<path id="Path 105" class="shp0" d="M58.88 13.04C58.19 21.85 56.19 30.74 54.59 39.5C57.17 39.54 59.76 39.39 62.34 39.44C63.31 34.12 64.23 28.62 65.63 24.81C67.63 20.8 70.52 19.86 73.71 20.05C74.17 17.55 74.63 15.04 75.08 12.54C71.76 12.09 68.44 13.37 65.12 18.46C65.24 16.66 65.45 14.85 65.57 13.04C63.37 13.04 61.08 13.04 58.88 13.04Z" />
			<path id="Path 106" class="shp0" d="M76.39 13.12L84.37 13.15L86.33 31.92L94.79 13.13L103.41 13.16L88.7 39.51L80.78 39.42L76.39 13.12Z" />
			<path id="Path 107" fill-rule="evenodd" class="shp0" d="M124.49 39.49L117.33 39.49L117.65 34.22C115.74 37.5 113.38 39.37 110.61 39.91C108.06 40.4 105.39 39.92 103.45 38.14C99.99 34.98 99.63 28.64 103.14 21.24C108.64 12.47 117.81 10.97 128.28 13.8C127.02 22.36 124.42 28.82 124.49 39.49ZM119.57 18.71C115.88 17.63 111.82 19.64 109.61 25.43C108.21 30.05 108.89 32.18 110.24 33.16C111.89 34.36 113.71 33.65 115.05 32.28C115.6 31.71 116.1 31.01 116.55 30.19C117.51 28.45 117.93 26.82 118.32 24.91C118.73 22.84 119.15 20.78 119.57 18.71Z" />
			<path id="Path 108" class="shp0" d="M134.08 13.09L141.92 13.09L137 39.43L129.12 39.43L134.08 13.09Z" />
			<path id="Path 109" class="shp0" d="M139.09 9.9C135.52 9.68 134.26 6.39 136.03 3.47C137.54 1.38 139.86 1.16 141.52 1.95C142.73 2.53 143.28 3.43 143.51 4.71C143.88 6.85 142.67 8.9 140.57 9.61C140.11 9.76 139.62 9.86 139.09 9.9Z" />
			<path id="Path 110" fill-rule="evenodd" class="shp0" d="M166.77 39.49L159.74 39.49L160.01 34.98C158.03 38.24 155.8 39.37 153.02 39.91C150.48 40.4 147.93 39.75 145.99 37.98C142.53 34.82 141.82 28.54 145.33 21.14C149.55 14.43 155.03 11.54 162.7 12.88C162.89 12.92 163.18 12.99 163.36 13.05L165.53 1.22L173.36 1.13C171.05 13.18 167.65 27.17 166.77 39.49ZM162.13 19.28C157.71 16.78 153.42 19.87 151.79 24.94C150.39 29.55 151.39 32.18 152.74 33.16C154.39 34.36 156.66 33.69 158 32.32C158.55 31.76 158.96 31.05 159.41 30.23C160.37 28.49 160.69 26.79 161.08 24.88C161.49 22.81 161.71 21.35 162.13 19.28Z" />
			<path id="Path 111" class="shp1" d="M178.5 13.47L191.14 13.47L194.25 1.29C194.42 0.64 194.8 0.07 195.48 0.07L206.34 0C207.01 0 207.73 0.57 207.56 1.22L204.45 13.47L217.01 13.47C217.68 13.47 218.42 14.05 218.23 14.7L215.13 25.5C214.95 26.15 214.58 26.72 213.91 26.72L201.09 26.72L197.99 38.92C197.83 39.56 197.45 40.11 196.8 40.12L185.87 40.15C185.19 40.15 184.48 39.58 184.64 38.93L187.76 26.72L175.93 26.72C175.26 26.72 174.55 26.16 174.71 25.5L177.31 14.67C177.46 14.03 177.85 13.47 178.5 13.47Z" />
			<path id="Path 112" class="shp0" d="M190.03 25.98C190.22 25.1 189.6 24.61 188.76 24.61L177.11 24.54L178.97 16.83C179.13 16.17 179.6 15.62 180.33 15.62L191.19 15.63C191.5 15.63 191.8 15.61 192.1 15.51C192.26 15.46 192.41 15.38 192.54 15.28C192.77 15.12 192.8 15.05 192.87 14.78L195.78 3.3C195.94 2.64 196.41 2.09 197.14 2.1L205.14 2.19L201.8 15.5C201.79 15.53 201.78 15.59 201.77 15.64L201.78 15.64L215.23 15.66L212.92 23.57C212.73 24.21 212.29 24.75 211.57 24.75L199.37 24.67L195.94 38.04L186.99 37.98L190.03 25.98Z" />
			<path id="Path 113" class="shp0" d="M195.41 37.35L198.84 23.99L211.57 24.06C211.95 24.07 212.15 23.74 212.26 23.38L214.32 16.35L201.79 16.33C201.06 16.33 200.99 15.9 201.13 15.33L204.26 2.87L197.13 2.78C196.75 2.78 196.53 3.1 196.44 3.47L193.53 14.95C193.43 15.37 193.31 15.57 192.94 15.84C192.76 15.98 192.55 16.08 192.32 16.16C191.94 16.29 191.58 16.32 191.19 16.32L180.32 16.31C179.95 16.31 179.73 16.63 179.64 16.99L177.98 23.86L188.77 23.92C189.91 23.93 191.01 24.7 190.7 26.14L187.87 37.3L195.41 37.35Z" />
			<path id="Path 114" fill-rule="evenodd" class="shp0" d="M215.17 3.64C215.66 3.64 216.13 3.76 216.58 4C217.03 4.25 217.38 4.6 217.64 5.06C217.9 5.51 218.02 5.99 218.02 6.49C218.02 6.98 217.9 7.46 217.65 7.91C217.4 8.36 217.04 8.71 216.59 8.96C216.14 9.21 215.67 9.34 215.17 9.34C214.68 9.34 214.21 9.21 213.75 8.96C213.3 8.71 212.95 8.36 212.7 7.91C212.45 7.46 212.32 6.98 212.32 6.49C212.32 5.99 212.45 5.51 212.71 5.06C212.96 4.6 213.32 4.25 213.77 4C214.22 3.76 214.68 3.64 215.17 3.64ZM215.18 4.2C214.79 4.2 214.41 4.29 214.05 4.49C213.69 4.68 213.41 4.97 213.2 5.33C212.99 5.7 212.89 6.09 212.89 6.49C212.89 6.89 212.99 7.27 213.19 7.63C213.39 7.99 213.68 8.28 214.04 8.48C214.4 8.68 214.78 8.78 215.18 8.78C215.58 8.78 215.96 8.68 216.32 8.48C216.68 8.28 216.96 7.99 217.17 7.63C217.37 7.27 217.47 6.89 217.47 6.49C217.47 6.09 217.37 5.7 217.16 5.33C216.95 4.97 216.67 4.68 216.31 4.49C215.95 4.29 215.57 4.2 215.18 4.2ZM213.89 4.99L214.5 4.99C215.08 4.99 215.4 4.99 215.47 5C215.67 5.01 215.83 5.05 215.94 5.12C216.06 5.18 216.15 5.28 216.23 5.41C216.3 5.54 216.34 5.68 216.34 5.84C216.34 6.06 216.27 6.24 216.13 6.4C215.98 6.56 215.78 6.65 215.52 6.69C215.61 6.72 215.69 6.76 215.74 6.8C215.79 6.84 215.85 6.92 215.94 7.04C215.96 7.06 216.04 7.19 216.16 7.4L216.52 8.01L215.76 8.01L215.51 7.52C215.34 7.19 215.2 6.98 215.08 6.9C214.97 6.81 214.83 6.77 214.66 6.77L214.5 6.77L214.5 8.01L213.89 8.01L213.89 4.99ZM214.5 6.29L214.75 6.29C215.1 6.29 215.32 6.28 215.41 6.25C215.5 6.23 215.56 6.18 215.61 6.11C215.66 6.04 215.69 5.96 215.69 5.88C215.69 5.79 215.66 5.72 215.61 5.65C215.57 5.59 215.5 5.54 215.41 5.51C215.32 5.48 215.1 5.47 214.75 5.47L214.5 5.47L214.5 6.29Z" />
			<text id="Pharmacy" style="transform: matrix(1,0,0,1,100.07,51.318)" >
				<tspan x="0" y="0" class="txt2">Pharmacy</tspan>
			</text>
		</g>
	</g>
</svg>