<svg xmlns="http://www.w3.org/2000/svg" viewBox="0 0 154 40" width="154" height="40">
	<defs>
		<clipPath clipPathUnits="userSpaceOnUse" id="cp1">
			<path d="M-61 -32L1305 -32L1305 4257L-61 4257Z" />
		</clipPath>
	</defs>
	<style>
		tspan { white-space:pre }
		.shp0 { fill: #0065ab } 
		.shp1 { fill: #d90010 } 
		.shp2 { fill: #ffffff } 
	</style>
	<g id="01 Home" clip-path="url(#cp1)">
		<g id="Group 44">
			<path id="Path 42" class="shp0" d="M0 26.49C6.08 30.14 17.78 28.86 17.88 19.66C17.44 14.26 14.16 14.08 10.45 11.41C9.3 10.59 8.36 9.51 9.5 7.96C10.73 6.29 14.17 6 17.71 7.58C18.3 6.05 18.9 4.53 19.5 3.01C14.37 0.46 4.96 1.56 3.36 8.37C2.81 11.46 3.82 13.45 5.52 14.95C6.86 16.14 8.48 16.84 9.96 17.82C11.81 19.06 13.09 20.59 11.1 22.67C9.15 24.11 5.26 23.84 1.87 21.98C1.25 23.48 0.62 24.99 0 26.49Z" />
			<path id="Path 43" fill-rule="evenodd" class="shp0" d="M27.59 23.8C30.2 24.5 32.56 24.01 34.77 22.85C34.91 24.2 35.05 25.56 35.19 26.92C34.34 27.32 33.46 27.66 32.5 27.92C30.69 28.4 28.7 28.54 26.84 28.3C23.01 27.81 20.26 25.53 20.11 20.61C20.3 14.36 23.88 10.48 28.63 9.1C32.8 8.24 37.94 9.74 37.47 14.96C37.43 15.89 37.2 16.69 36.81 17.36C35.18 20.12 30.78 20.8 25.43 20.77C25.4 22.32 26.21 23.27 27.59 23.8ZM29.83 16.49C31.1 16.25 32.62 15.73 32.34 14.16C32.27 13.73 32.01 13.41 31.57 13.2C30.12 12.48 28.39 13.05 27.3 14.16C26.61 14.87 26.22 15.76 25.95 16.74C27.5 16.78 28.78 16.7 29.83 16.49Z" />
			<path id="Path 44" class="shp0" d="M41.03 9.25C40.54 15.49 39.12 21.79 37.98 28C39.82 28.03 41.65 27.92 43.48 27.96C44.17 24.19 44.82 20.29 45.81 17.59C47.23 14.74 49.27 14.08 51.54 14.21C51.87 12.44 52.19 10.66 52.51 8.89C50.16 8.57 47.8 9.47 45.45 13.09C45.53 11.81 45.69 10.53 45.77 9.25C44.21 9.25 42.59 9.25 41.03 9.25Z" />
			<path id="Path 45" class="shp0" d="M53.44 9.3L59.09 9.32L60.49 22.63L66.48 9.31L72.59 9.33L62.16 28.01L56.55 27.94L53.44 9.3Z" />
			<path id="Path 46" fill-rule="evenodd" class="shp0" d="M87.53 27.99L82.46 27.99L82.68 24.26C81.33 26.58 79.66 27.91 77.69 28.29C75.89 28.64 74 28.29 72.62 27.04C70.17 24.8 69.91 20.3 72.4 15.06C76.3 8.84 82.8 7.78 90.22 9.79C89.33 15.85 87.48 20.43 87.53 27.99ZM84.04 13.27C81.43 12.5 78.55 13.92 76.99 18.03C75.99 21.3 76.48 22.81 77.43 23.5C78.6 24.36 79.89 23.85 80.84 22.88C81.23 22.48 81.59 21.98 81.91 21.4C82.58 20.17 82.88 19.01 83.16 17.65C83.45 16.19 83.75 14.73 84.04 13.27Z" />
			<path id="Path 47" class="shp0" d="M94.33 9.28L99.89 9.28L96.4 27.95L90.82 27.95L94.33 9.28Z" />
			<path id="Path 48" class="shp0" d="M97.88 7.02C95.35 6.86 94.46 4.53 95.71 2.46C96.78 0.98 98.43 0.82 99.6 1.38C100.46 1.79 100.85 2.43 101.01 3.34C101.28 4.86 100.42 6.31 98.93 6.81C98.61 6.92 98.26 6.99 97.88 7.02Z" />
			<path id="Path 49" fill-rule="evenodd" class="shp0" d="M117.51 27.99L112.52 27.99L112.71 24.79C111.31 27.1 109.72 27.91 107.76 28.29C105.95 28.64 104.15 28.18 102.78 26.92C100.32 24.68 99.82 20.23 102.31 14.99C105.29 10.23 109.18 8.18 114.62 9.13C114.75 9.16 114.96 9.21 115.08 9.25L116.62 0.86L122.17 0.8C120.53 9.34 118.13 19.26 117.51 27.99ZM114.21 13.67C111.08 11.89 108.04 14.08 106.89 17.67C105.89 20.95 106.6 22.81 107.56 23.5C108.73 24.36 110.34 23.88 111.29 22.91C111.68 22.51 111.97 22.01 112.29 21.43C112.97 20.2 113.19 18.99 113.47 17.63C113.76 16.17 113.92 15.13 114.21 13.67Z" />
			<path id="Path 50" class="shp1" d="M125.82 9.55L134.78 9.55L136.98 0.91C137.1 0.45 137.37 0.05 137.85 0.05L145.55 0C146.03 0 146.53 0.4 146.42 0.87L144.21 9.55L153.11 9.55C153.59 9.55 154.11 9.96 153.98 10.42L151.78 18.08C151.65 18.53 151.39 18.94 150.92 18.94L141.83 18.94L139.63 27.59C139.52 28.04 139.25 28.43 138.79 28.44L131.04 28.46C130.56 28.46 130.06 28.06 130.17 27.6L132.38 18.94L123.99 18.94C123.52 18.94 123.02 18.54 123.13 18.08L124.97 10.4C125.08 9.94 125.35 9.55 125.82 9.55Z" />
			<path id="Path 51" class="shp2" d="M133.99 18.42C134.12 17.79 133.69 17.45 133.09 17.44L124.83 17.39L126.15 11.93C126.26 11.46 126.6 11.07 127.11 11.07L134.81 11.08C135.03 11.08 135.24 11.07 135.45 10.99C135.57 10.96 135.67 10.9 135.77 10.83C135.93 10.72 135.95 10.67 136 10.48L138.06 2.34C138.18 1.87 138.51 1.48 139.03 1.49L144.7 1.56L142.33 10.99C142.32 11.01 142.32 11.05 142.31 11.09L142.32 11.09L151.85 11.1L150.21 16.71C150.08 17.16 149.77 17.55 149.26 17.54L140.61 17.49L138.18 26.96L131.84 26.92L133.99 18.42Z" />
			<path id="Path 52" class="shp0" d="M137.8 26.48L140.24 17L149.26 17.06C149.53 17.06 149.67 16.83 149.75 16.57L151.2 11.59L142.32 11.57C141.81 11.57 141.76 11.27 141.86 10.87L144.08 2.03L139.02 1.97C138.75 1.97 138.6 2.2 138.53 2.46L136.47 10.6C136.4 10.89 136.32 11.04 136.05 11.23C135.92 11.32 135.78 11.4 135.61 11.45C135.34 11.55 135.09 11.57 134.81 11.57L127.11 11.56C126.84 11.56 126.69 11.79 126.62 12.05L125.45 16.91L133.09 16.96C133.91 16.96 134.69 17.51 134.46 18.53L132.46 26.44L137.8 26.48Z" />
			<path id="Path 53" fill-rule="evenodd" class="shp0" d="M151.81 2.58C152.16 2.58 152.49 2.66 152.81 2.84C153.13 3.01 153.38 3.26 153.56 3.58C153.74 3.91 153.83 4.25 153.83 4.6C153.83 4.95 153.74 5.29 153.57 5.61C153.39 5.92 153.14 6.17 152.82 6.35C152.5 6.53 152.16 6.62 151.81 6.62C151.46 6.62 151.13 6.53 150.81 6.35C150.49 6.17 150.24 5.92 150.06 5.61C149.88 5.29 149.79 4.95 149.79 4.6C149.79 4.25 149.88 3.91 150.06 3.58C150.25 3.26 150.5 3.01 150.81 2.84C151.13 2.66 151.47 2.58 151.81 2.58ZM151.82 2.97C151.54 2.97 151.27 3.04 151.02 3.18C150.76 3.32 150.56 3.52 150.41 3.78C150.27 4.04 150.19 4.31 150.19 4.6C150.19 4.88 150.26 5.15 150.41 5.41C150.55 5.67 150.75 5.87 151.01 6.01C151.26 6.16 151.53 6.23 151.82 6.23C152.1 6.23 152.37 6.16 152.62 6.01C152.88 5.87 153.08 5.67 153.22 5.41C153.37 5.15 153.44 4.88 153.44 4.6C153.44 4.31 153.37 4.04 153.22 3.78C153.07 3.52 152.87 3.32 152.62 3.18C152.36 3.04 152.09 2.97 151.82 2.97ZM150.9 3.54L151.34 3.54C151.74 3.54 151.97 3.54 152.02 3.54C152.16 3.55 152.28 3.58 152.36 3.63C152.44 3.67 152.5 3.74 152.56 3.83C152.61 3.93 152.64 4.03 152.64 4.14C152.64 4.29 152.59 4.43 152.49 4.54C152.39 4.65 152.24 4.72 152.06 4.74C152.12 4.77 152.17 4.79 152.21 4.82C152.25 4.85 152.29 4.91 152.36 4.99C152.37 5.01 152.42 5.09 152.51 5.25L152.77 5.68L152.23 5.68L152.05 5.33C151.93 5.1 151.83 4.95 151.75 4.89C151.67 4.83 151.57 4.8 151.45 4.8L151.34 4.8L151.34 5.68L150.9 5.68L150.9 3.54ZM151.34 4.46L151.51 4.46C151.76 4.46 151.92 4.45 151.98 4.43C152.04 4.41 152.09 4.38 152.12 4.33C152.16 4.28 152.18 4.23 152.18 4.17C152.18 4.11 152.16 4.05 152.12 4.01C152.09 3.96 152.04 3.93 151.98 3.91C151.92 3.89 151.76 3.88 151.51 3.88L151.34 3.88L151.34 4.46Z" />
			<g id="Group 43">
				<path id="Path 54" fill-rule="evenodd" class="shp0" d="M74.28 33.01C74.61 33.25 74.78 33.61 74.78 34.09C74.78 34.46 74.7 34.79 74.54 35.09C74.39 35.39 74.13 35.63 73.78 35.82C73.43 36.01 72.98 36.1 72.44 36.1L71.73 36.1L71.46 38.1L70.71 38.1L71.48 32.65L72.88 32.65C73.48 32.65 73.95 32.77 74.28 33.01ZM73.64 35.11C73.87 34.84 73.99 34.5 73.99 34.09C73.99 33.79 73.89 33.57 73.69 33.44C73.49 33.31 73.2 33.24 72.82 33.24L72.14 33.24L71.82 35.51L72.45 35.51C73.02 35.51 73.41 35.37 73.64 35.11Z" />
				<path id="Path 55" class="shp0" d="M80.09 34.12C80.27 34.3 80.36 34.56 80.36 34.88C80.36 35 80.36 35.09 80.35 35.15L79.93 38.1L79.21 38.1L79.62 35.19C79.63 35.07 79.64 35 79.64 34.95C79.64 34.77 79.6 34.64 79.52 34.56C79.44 34.49 79.34 34.45 79.2 34.45C78.95 34.45 78.71 34.56 78.48 34.77C78.25 34.99 78.04 35.26 77.85 35.6L77.51 38.1L76.79 38.1L77.61 32.27L78.34 32.19L77.98 34.72C78.37 34.13 78.82 33.84 79.35 33.84C79.67 33.84 79.91 33.93 80.09 34.12Z" />
				<path id="Path 56" fill-rule="evenodd" class="shp0" d="M85.86 33.93C86.09 33.98 86.33 34.07 86.58 34.2L86.15 37.15C86.14 37.23 86.14 37.29 86.14 37.32C86.14 37.42 86.16 37.5 86.2 37.55C86.24 37.61 86.31 37.66 86.41 37.7L86.2 38.19C85.98 38.17 85.81 38.1 85.69 37.99C85.57 37.88 85.49 37.71 85.47 37.5C85.3 37.71 85.11 37.88 84.9 38.01C84.69 38.13 84.46 38.19 84.23 38.19C83.8 38.19 83.48 38.05 83.25 37.76C83.01 37.47 82.9 37.08 82.9 36.6C82.9 36.18 82.98 35.75 83.13 35.33C83.29 34.91 83.53 34.56 83.86 34.27C84.19 33.98 84.61 33.84 85.12 33.84C85.38 33.84 85.62 33.87 85.86 33.93ZM84.31 34.75C84.09 34.98 83.93 35.26 83.83 35.59C83.72 35.92 83.67 36.26 83.67 36.6C83.67 36.95 83.73 37.2 83.85 37.37C83.98 37.53 84.15 37.62 84.38 37.62C84.59 37.62 84.79 37.55 84.96 37.42C85.13 37.29 85.31 37.1 85.49 36.85L85.81 34.55C85.7 34.5 85.6 34.47 85.49 34.45C85.39 34.43 85.27 34.42 85.14 34.42C84.8 34.42 84.53 34.53 84.31 34.75Z" />
				<path id="Path 57" class="shp0" d="M91.81 33.89L91.6 34.6C91.5 34.57 91.38 34.56 91.26 34.56C91 34.56 90.78 34.67 90.58 34.89C90.39 35.12 90.22 35.45 90.07 35.89L89.75 38.1L89.03 38.1L89.62 33.93L90.23 33.93L90.18 34.79C90.34 34.47 90.52 34.23 90.73 34.08C90.93 33.92 91.16 33.84 91.39 33.84C91.52 33.84 91.66 33.86 91.81 33.89Z" />
				<path id="Path 58" class="shp0" d="M99.05 34.12C99.22 34.31 99.3 34.56 99.3 34.87C99.3 34.99 99.3 35.08 99.29 35.14L98.87 38.1L98.15 38.1L98.56 35.19C98.57 35.13 98.58 35.05 98.58 34.95C98.58 34.76 98.54 34.63 98.46 34.55C98.38 34.48 98.27 34.45 98.13 34.45C97.93 34.45 97.73 34.55 97.53 34.76C97.34 34.97 97.14 35.24 96.95 35.59L96.59 38.1L95.87 38.1L96.28 35.19C96.3 35.13 96.3 35.05 96.3 34.95C96.3 34.76 96.26 34.63 96.18 34.55C96.1 34.48 95.99 34.45 95.85 34.45C95.65 34.45 95.45 34.55 95.26 34.76C95.06 34.97 94.87 35.25 94.67 35.6L94.33 38.1L93.61 38.1L94.2 33.93L94.81 33.93L94.75 34.73C94.96 34.44 95.17 34.22 95.39 34.07C95.61 33.92 95.85 33.84 96.11 33.84C96.34 33.84 96.54 33.91 96.71 34.06C96.88 34.21 96.98 34.42 97.02 34.68C97.23 34.41 97.45 34.2 97.67 34.05C97.9 33.91 98.13 33.84 98.39 33.84C98.67 33.84 98.89 33.93 99.05 34.12Z" />
				<path id="Path 59" fill-rule="evenodd" class="shp0" d="M104.8 33.93C105.03 33.98 105.27 34.07 105.52 34.2L105.1 37.15C105.08 37.23 105.08 37.29 105.08 37.32C105.08 37.42 105.1 37.5 105.14 37.55C105.18 37.61 105.25 37.66 105.35 37.7L105.14 38.19C104.92 38.17 104.75 38.1 104.63 37.99C104.51 37.88 104.43 37.71 104.41 37.5C104.24 37.71 104.05 37.88 103.84 38.01C103.63 38.13 103.4 38.19 103.17 38.19C102.75 38.19 102.42 38.05 102.19 37.76C101.96 37.47 101.84 37.08 101.84 36.6C101.84 36.18 101.92 35.75 102.07 35.33C102.23 34.91 102.47 34.56 102.8 34.27C103.14 33.98 103.55 33.84 104.06 33.84C104.32 33.84 104.56 33.87 104.8 33.93ZM103.25 34.75C103.03 34.98 102.87 35.26 102.77 35.59C102.67 35.92 102.61 36.26 102.61 36.6C102.61 36.95 102.67 37.2 102.8 37.37C102.92 37.53 103.09 37.62 103.32 37.62C103.53 37.62 103.73 37.55 103.9 37.42C104.07 37.29 104.25 37.1 104.43 36.85L104.76 34.55C104.65 34.5 104.54 34.47 104.44 34.45C104.33 34.43 104.21 34.42 104.08 34.42C103.74 34.42 103.47 34.53 103.25 34.75Z" />
				<path id="Path 60" class="shp0" d="M111.25 34.3L110.86 34.75C110.74 34.64 110.61 34.56 110.48 34.51C110.36 34.46 110.21 34.44 110.05 34.44C109.72 34.44 109.46 34.55 109.26 34.77C109.05 34.99 108.91 35.26 108.82 35.58C108.73 35.9 108.69 36.22 108.69 36.55C108.69 37.23 108.97 37.58 109.54 37.58C109.71 37.58 109.87 37.55 110.01 37.5C110.16 37.45 110.32 37.36 110.5 37.25L110.79 37.76C110.39 38.05 109.95 38.19 109.49 38.19C108.99 38.19 108.61 38.04 108.34 37.75C108.07 37.45 107.93 37.03 107.93 36.49C107.93 36.09 108.01 35.69 108.15 35.28C108.3 34.87 108.53 34.53 108.85 34.25C109.17 33.98 109.56 33.84 110.04 33.84C110.53 33.84 110.93 33.99 111.25 34.3Z" />
				<path id="Path 61" class="shp0" d="M114.96 38.14C114.75 38.62 114.47 39 114.13 39.28C113.78 39.56 113.34 39.72 112.79 39.78L112.76 39.21C113.04 39.17 113.28 39.1 113.45 39.01C113.63 38.92 113.78 38.8 113.9 38.66C114.02 38.52 114.14 38.34 114.27 38.1L114 38.1L113.2 33.93L113.96 33.93L114.55 37.55L116.14 33.93L116.89 33.93L114.96 38.14Z" />
			</g>
		</g>
	</g>
</svg>